%TF.GenerationSoftware,KiCad,Pcbnew,(6.0.11)*%
%TF.CreationDate,2023-04-12T19:14:39+02:00*%
%TF.ProjectId,T-DISPLAY-S3,542d4449-5350-44c4-9159-2d53332e6b69,0.3*%
%TF.SameCoordinates,Original*%
%TF.FileFunction,Profile,NP*%
%FSLAX46Y46*%
G04 Gerber Fmt 4.6, Leading zero omitted, Abs format (unit mm)*
G04 Created by KiCad (PCBNEW (6.0.11)) date 2023-04-12 19:14:39*
%MOMM*%
%LPD*%
G01*
G04 APERTURE LIST*
%TA.AperFunction,Profile*%
%ADD10C,0.250000*%
%TD*%
G04 APERTURE END LIST*
D10*
X82568312Y-240492719D02*
G75*
G03*
X82568312Y-240492719I-3000000J0D01*
G01*
X130599573Y-246938000D02*
X136428000Y-252766427D01*
X547688312Y-240492719D02*
G75*
G03*
X547688312Y-240492719I-3000000J0D01*
G01*
X108428000Y-262438000D02*
G75*
G03*
X111928000Y-265938000I3500001J1D01*
G01*
X82568312Y-272383281D02*
G75*
G03*
X82568312Y-272383281I-3000000J0D01*
G01*
X547688312Y-256438000D02*
G75*
G03*
X547688312Y-256438000I-3000000J0D01*
G01*
X553428312Y-234138000D02*
X553428312Y-278738000D01*
X93224280Y-274638275D02*
G75*
G03*
X93224280Y-274638275I-1500000J0D01*
G01*
X547688312Y-272383281D02*
G75*
G03*
X547688312Y-272383281I-3000000J0D01*
G01*
X82568312Y-256438000D02*
G75*
G03*
X82568312Y-256438000I-3000000J0D01*
G01*
X534032344Y-238137725D02*
G75*
G03*
X534032344Y-238137725I-1500000J0D01*
G01*
X93224280Y-238137725D02*
G75*
G03*
X93224280Y-238137725I-1500000J0D01*
G01*
X534032344Y-274638275D02*
G75*
G03*
X534032344Y-274638275I-1500000J0D01*
G01*
X104178000Y-256438000D02*
G75*
G03*
X104178000Y-256438000I-1750000J0D01*
G01*
X144178000Y-256438000D02*
G75*
G03*
X144178000Y-256438000I-1750000J0D01*
G01*
X114256428Y-246938000D02*
X108428000Y-252766427D01*
X108428000Y-252766427D02*
X108428000Y-262438000D01*
X132928000Y-265938000D02*
X111928000Y-265938000D01*
X136428000Y-252766427D02*
X136428000Y-262438000D01*
X114256428Y-246938000D02*
X130599573Y-246938000D01*
X70828312Y-234138000D02*
X553428312Y-234138000D01*
X553428312Y-278738000D02*
X70828312Y-278738000D01*
X70828312Y-278738000D02*
X70828312Y-234138000D01*
X132928000Y-265938000D02*
G75*
G03*
X136428000Y-262438000I1J3499999D01*
G01*
M02*
