M48
; DRILL file {KiCad (6.0.11)} date Wed Apr 12 19:14:43 2023
; FORMAT={-:-/ absolute / inch / decimal}
; #@! TF.CreationDate,2023-04-12T19:14:43+02:00
; #@! TF.GenerationSoftware,Kicad,Pcbnew,(6.0.11)
; #@! TF.FileFunction,Plated,1,2,PTH
FMAT,2
INCH
; #@! TA.AperFunction,Plated,PTH,ViaDrill
T1C0.0157
; #@! TA.AperFunction,Plated,PTH,ComponentDrill
T2C0.0394
; #@! TA.AperFunction,Plated,PTH,ComponentDrill
T3C0.0598
%
G90
G05
T1
X-1.8Y-7.9
X6.95Y-9.5
X7.125Y-9.3
X7.4Y-9.35
X14.65Y-9.75
X16.55Y-9.9
X18.2478Y-10.0
T2
X6.9Y-9.6999
X6.9Y-10.6
X7.0Y-9.6999
X7.0Y-10.6
X7.1Y-9.6999
X7.1Y-10.6
X7.2Y-9.6999
X7.2Y-10.6
X7.3Y-9.6999
X7.3Y-10.6
X7.4Y-9.6999
X7.4Y-10.6
X7.5Y-9.6999
X7.5Y-10.6
X7.6Y-9.6999
X7.6Y-10.6
X7.7Y-9.6999
X7.7Y-10.6
X7.8Y-9.6999
X7.8Y-10.6
X7.9Y-9.6999
X7.9Y-10.6
X8.0Y-9.6999
X8.0Y-10.6
X9.6Y-9.6999
X9.6Y-10.6
X9.7Y-9.6999
X9.7Y-10.6
X9.8Y-9.6999
X9.8Y-10.6
X9.9Y-9.6999
X9.9Y-10.6
X10.0Y-9.6999
X10.0Y-10.6
X10.1Y-9.6999
X10.1Y-10.6
X10.2Y-9.6999
X10.2Y-10.6
X10.3Y-9.6999
X10.3Y-10.6
X10.4Y-9.6999
X10.4Y-10.6
X10.5Y-9.6999
X10.5Y-10.6
X10.6Y-9.6999
X10.6Y-10.6
X10.7Y-9.6999
X10.7Y-10.6
X12.3Y-9.6999
X12.3Y-10.6
X12.4Y-9.6999
X12.4Y-10.6
X12.5Y-9.6999
X12.5Y-10.6
X12.6Y-9.6999
X12.6Y-10.6
X12.7Y-9.6999
X12.7Y-10.6
X12.8Y-9.6999
X12.8Y-10.6
X12.9Y-9.6999
X12.9Y-10.6
X13.0Y-9.6999
X13.0Y-10.6
X13.1Y-9.6999
X13.1Y-10.6
X13.2Y-9.6999
X13.2Y-10.6
X13.3Y-9.6999
X13.3Y-10.6
X13.4Y-9.6999
X13.4Y-10.6
X15.0Y-9.6999
X15.0Y-10.6
X15.1Y-9.6999
X15.1Y-10.6
X15.2Y-9.6999
X15.2Y-10.6
X15.3Y-9.6999
X15.3Y-10.6
X15.4Y-9.6999
X15.4Y-10.6
X15.5Y-9.6999
X15.5Y-10.6
X15.6Y-9.6999
X15.6Y-10.6
X15.7Y-9.6999
X15.7Y-10.6
X15.8Y-9.6999
X15.8Y-10.6
X15.9Y-9.6999
X15.9Y-10.6
X16.0Y-9.6999
X16.0Y-10.6
X16.1Y-9.6999
X16.1Y-10.6
X17.766Y-9.6999
X17.766Y-10.6
X17.866Y-9.6999
X17.866Y-10.6
X17.966Y-9.6999
X17.966Y-10.6
X18.066Y-9.6999
X18.066Y-10.6
X18.166Y-9.6999
X18.166Y-10.6
X18.266Y-9.6999
X18.266Y-10.6
X18.366Y-9.6999
X18.366Y-10.6
X18.466Y-9.6999
X18.466Y-10.6
X18.566Y-9.6999
X18.566Y-10.6
X18.666Y-9.6999
X18.666Y-10.6
X18.766Y-9.6999
X18.766Y-10.6
X18.866Y-9.6999
X18.866Y-10.6
T3
X4.7Y-10.7
X4.9Y-10.7
T0
M30
